<svg width="400" height="210" viewBox="0 0 400 210" fill="none" xmlns="http://www.w3.org/2000/svg">
<g clip-path="url(#clip0_552_60)">
<mask id="mask0_552_60" style="mask-type:luminance" maskUnits="userSpaceOnUse" x="0" y="0" width="400" height="210">
<path d="M400 0H0V210H400V0Z" fill="white"/>
</mask>
<g mask="url(#mask0_552_60)">
<path d="M-4.27734 -9.13916H401.071V60.3796H-4.27734V-9.13916Z" fill="#1B205B"/>
<path d="M0 43.3125C11.7556 36.227 23.5107 29.1411 32.8198 28.3668C42.1289 27.5924 48.9915 33.1288 58.7515 38.4653C68.5116 43.8017 81.1687 48.9382 93.1921 50.9874C105.216 53.0366 116.605 51.9993 126.822 53.0071C137.039 54.0149 146.085 57.0687 157.211 57.8544C168.337 58.64 181.546 57.1584 190.436 53.411C199.327 49.6637 203.899 43.6514 214.342 43.3125C224.785 42.9736 241.098 48.3093 252.834 51.3913C264.571 54.4734 271.73 55.3035 281.197 55.8347C290.664 56.3658 302.437 56.5985 314.017 49.7756C325.597 42.9526 336.983 29.0737 346.026 28.7707C355.07 28.4678 361.77 41.7396 371.958 44.1204C382.146 46.5012 395.823 37.9914 401.942 36.0416C408.06 34.0918 406.621 38.7024 421.39 43.3125L405.183 225.086H0V43.3125Z" fill="#2036A1"/>
<path d="M0 103.836C8.8103 95.1566 17.621 86.4775 27.5524 88.4774C37.4839 90.4772 48.5369 103.156 60.3723 111.111C72.2077 119.066 84.8263 122.297 96.4336 116.365C108.041 110.433 118.636 95.3361 128.038 92.1148C137.439 88.8936 145.646 97.5481 155.185 98.5815C164.724 99.615 175.595 93.0279 187.195 90.094C198.794 87.1602 211.122 87.88 221.23 91.3065C231.338 94.733 239.224 100.866 249.593 104.644C259.961 108.422 272.811 109.844 282.818 111.919C292.824 113.994 299.987 116.72 310.37 115.961C320.753 115.202 334.357 110.957 344.811 106.665C355.265 102.373 362.57 98.0318 373.174 99.794C383.777 101.556 397.678 109.42 403.562 111.111C409.447 112.801 407.315 108.319 421.39 103.836L405.183 225.086H0V103.836Z" fill="#2036A1"/>
<path d="M0 164.508C12.7329 167.791 25.4658 171.073 34.8457 170.97C44.2257 170.867 50.2516 167.377 60.3723 170.162C70.4929 172.948 84.7076 182.008 95.6232 177.835C106.539 173.662 114.155 156.256 123.581 155.22C133.006 154.184 144.241 169.519 154.375 176.22C164.508 182.921 173.542 180.986 183.953 174.201C194.364 167.415 206.152 155.778 216.773 156.431C227.394 157.085 236.848 170.028 247.972 174.201C259.096 178.373 271.89 173.775 282.007 174.605C292.125 175.434 299.565 181.694 310.37 178.643C321.176 175.592 335.347 163.233 344.811 157.643C354.275 152.053 359.031 153.233 370.337 154.412C381.644 155.591 399.5 156.768 406.399 158.451C413.298 160.133 409.241 162.321 421.39 164.508L405.183 225.086H0V164.508Z" fill="#2E51ED"/>
</g>
</g>
<defs>
<clipPath id="clip0_552_60">
<rect width="400" height="210" fill="white"/>
</clipPath>
</defs>
</svg>
