<svg width="400" height="210" viewBox="0 0 400 210" fill="none" xmlns="http://www.w3.org/2000/svg">
  <g clip-path="url(#clip0_2400_20886)">
    <path d="M-4.27808 -9.13904H401.07V60.3797H-4.27808V-9.13904Z" fill="#1b205b" />
    <path
      d="M0 43.3127C11.7556 36.2272 23.5107 29.1413 32.8198 28.367C42.1289 27.5926 48.9915 33.129 58.7515 38.4655C68.5116 43.8019 81.1687 48.9384 93.1921 50.9876C105.216 53.0368 116.605 51.9995 126.822 53.0073C137.039 54.0151 146.085 57.0689 157.211 57.8546C168.337 58.6402 181.546 57.1586 190.436 53.4112C199.327 49.6639 203.899 43.6516 214.342 43.3127C224.785 42.9738 241.098 48.3095 252.834 51.3915C264.571 54.4736 271.73 55.3037 281.197 55.8349C290.664 56.366 302.437 56.5987 314.017 49.7758C325.597 42.9528 336.983 29.0739 346.026 28.7709C355.07 28.468 361.77 41.7398 371.958 44.1206C382.146 46.5014 395.823 37.9916 401.942 36.0418C408.06 34.092 406.621 38.7026 421.39 43.3127L405.183 225.086H0V43.3127Z"
      fill="#2036a1" />
    <path
      d="M0 103.836C8.8103 95.1567 17.621 86.4776 27.5524 88.4775C37.4839 90.4773 48.5369 103.156 60.3723 111.111C72.2077 119.066 84.8263 122.297 96.4336 116.365C108.041 110.433 118.636 95.3362 128.038 92.1149C137.439 88.8937 145.646 97.5482 155.185 98.5816C164.724 99.6151 175.595 93.028 187.195 90.0941C198.794 87.1603 211.122 87.8801 221.23 91.3066C231.338 94.7331 239.224 100.866 249.593 104.644C259.961 108.422 272.811 109.844 282.818 111.919C292.824 113.994 299.987 116.72 310.37 115.961C320.753 115.202 334.357 110.957 344.811 106.665C355.265 102.373 362.57 98.0319 373.174 99.7941C383.777 101.556 397.678 109.42 403.562 111.111C409.447 112.801 407.315 108.319 421.39 103.836L405.183 225.086H0V103.836Z"
      fill="#2036a1" />
    <path
      d="M0 164.508C12.7329 167.791 25.4658 171.073 34.8457 170.97C44.2257 170.867 50.2516 167.377 60.3723 170.162C70.4929 172.948 84.7076 182.008 95.6232 177.835C106.539 173.662 114.155 156.256 123.581 155.22C133.006 154.184 144.241 169.519 154.375 176.22C164.508 182.921 173.542 180.986 183.953 174.201C194.364 167.415 206.152 155.778 216.773 156.431C227.394 157.085 236.848 170.028 247.972 174.201C259.096 178.373 271.89 173.775 282.007 174.605C292.125 175.434 299.565 181.694 310.37 178.643C321.176 175.592 335.347 163.233 344.811 157.643C354.275 152.053 359.031 153.233 370.337 154.412C381.644 155.591 399.5 156.768 406.399 158.451C413.298 160.133 409.241 162.321 421.39 164.508L405.183 225.086H0V164.508Z"
      fill="#2e51ed" />
  </g>
  <defs>
    <clipPath id="clip0_2400_20886">
      <rect width="400" height="210" fill="white" />
    </clipPath>
  </defs>
</svg>
  