<svg width="40" height="35" viewBox="0 0 40 35" fill="none" xmlns="http://www.w3.org/2000/svg">
<path fill-rule="evenodd" clip-rule="evenodd" d="M10.1922 21.9509C10.578 23.8907 11.5304 25.6725 12.9289 27.071L5.85787 34.1421C3.06084 31.3451 1.15602 27.7814 0.384308 23.9018C-0.387415 20.0221 0.00869238 16.0008 1.52239 12.3463C3.03616 8.69183 5.59964 5.56819 8.8886 3.37057C12.1776 1.17295 16.0444 -7.047e-05 20 3.23563e-09C23.9556 -7.11369e-05 27.8224 1.17295 31.1114 3.37057C34.4004 5.56818 36.9639 8.69183 38.4776 12.3463C39.9913 16.0008 40.3874 20.0221 39.6157 23.9018C38.844 27.7814 36.9392 31.3451 34.1421 34.1421L27.0711 27.071C28.4696 25.6725 29.422 23.8907 29.8079 21.9509C30.1937 20.0111 29.9957 18.0004 29.2388 16.1731C28.482 14.3459 27.2002 12.7841 25.5557 11.6853C23.9112 10.5865 21.9779 9.99998 20 9.99991C18.0222 9.99998 16.0888 10.5865 14.4443 11.6853C12.7998 12.7841 11.5181 14.3459 10.7612 16.1731C10.0043 18.0004 9.80629 20.0111 10.1922 21.9509Z" fill="#FF721C"/>
<path fill-rule="evenodd" clip-rule="evenodd" d="M12.929 33.2131C13.8576 32.2845 14.96 31.5479 16.1732 31.0453C17.3865 30.5428 18.6868 30.2841 20 30.2841C21.3133 30.2841 22.6136 30.5428 23.8269 31.0453C25.0401 31.5479 26.1425 32.2845 27.0711 33.213L34.1422 26.142C32.285 24.2848 30.0802 22.8116 27.6537 21.8065C25.2272 20.8014 22.6265 20.2841 20 20.2842C17.3736 20.2841 14.7729 20.8014 12.3464 21.8065C9.91985 22.8116 7.71508 24.2848 5.85791 26.142L12.929 33.2131Z" fill="#66CBCD"/>
<g filter="url(#filter0_d_521_299)">
<path d="M20 27C23.866 27 27 23.866 27 20C27 16.134 23.866 13 20 13C16.134 13 13 16.134 13 20C13 23.866 16.134 27 20 27Z" fill="#66CBCD"/>
</g>
<defs>
<filter id="filter0_d_521_299" x="9" y="13" width="22" height="22" filterUnits="userSpaceOnUse" color-interpolation-filters="sRGB">
<feFlood flood-opacity="0" result="BackgroundImageFix"/>
<feColorMatrix in="SourceAlpha" type="matrix" values="0 0 0 0 0 0 0 0 0 0 0 0 0 0 0 0 0 0 127 0" result="hardAlpha"/>
<feOffset dy="4"/>
<feGaussianBlur stdDeviation="2"/>
<feComposite in2="hardAlpha" operator="out"/>
<feColorMatrix type="matrix" values="0 0 0 0 0.121569 0 0 0 0 0.113725 0 0 0 0 0.168627 0 0 0 1 0"/>
<feBlend mode="normal" in2="BackgroundImageFix" result="effect1_dropShadow_521_299"/>
<feBlend mode="normal" in="SourceGraphic" in2="effect1_dropShadow_521_299" result="shape"/>
</filter>
</defs>
</svg>
