<svg width="176" height="35" viewBox="0 0 176 35" fill="none" xmlns="http://www.w3.org/2000/svg">
<path fill-rule="evenodd" clip-rule="evenodd" d="M10.1922 21.9509C10.578 23.8907 11.5304 25.6725 12.9289 27.071L5.85787 34.1421C3.06084 31.3451 1.15602 27.7814 0.384308 23.9018C-0.387415 20.0221 0.00869238 16.0008 1.52239 12.3463C3.03616 8.69183 5.59964 5.56819 8.8886 3.37057C12.1776 1.17295 16.0444 -7.047e-05 20 3.2357e-09C23.9556 -7.11369e-05 27.8224 1.17295 31.1114 3.37057C34.4004 5.56818 36.9639 8.69183 38.4776 12.3463C39.9913 16.0008 40.3874 20.0221 39.6157 23.9018C38.844 27.7814 36.9392 31.3451 34.1421 34.1421L27.0711 27.071C28.4696 25.6725 29.422 23.8907 29.8079 21.9509C30.1937 20.0111 29.9957 18.0004 29.2388 16.1731C28.482 14.3459 27.2002 12.7841 25.5557 11.6853C23.9112 10.5865 21.9779 9.99998 20 9.99991C18.0222 9.99998 16.0888 10.5865 14.4443 11.6853C12.7998 12.7841 11.5181 14.3459 10.7612 16.1731C10.0043 18.0004 9.80629 20.0111 10.1922 21.9509Z" fill="#FF721C"/>
<path fill-rule="evenodd" clip-rule="evenodd" d="M12.929 33.2132C13.8576 32.2846 14.96 31.548 16.1732 31.0454C17.3865 30.5429 18.6868 30.2842 20 30.2842C21.3133 30.2842 22.6136 30.5429 23.8269 31.0454C25.0401 31.548 26.1425 32.2846 27.0711 33.2131L34.1422 26.1421C32.285 24.2849 30.0802 22.8117 27.6537 21.8066C25.2272 20.8015 22.6265 20.2842 20 20.2843C17.3736 20.2842 14.7729 20.8015 12.3464 21.8066C9.91985 22.8117 7.71508 24.2849 5.85791 26.1421L12.929 33.2132Z" fill="#66CBCD"/>
<g filter="url(#filter0_d_106_144)">
<circle cx="20" cy="20" r="7" fill="#66CBCD"/>
</g>
<path d="M175.594 27.024C175.359 27.088 174.986 27.152 174.474 27.216C173.983 27.28 173.493 27.312 173.002 27.312C172.511 27.312 172.074 27.2693 171.69 27.184C171.327 27.12 171.018 26.992 170.762 26.8C170.506 26.608 170.314 26.3413 170.186 26C170.058 25.6587 169.994 25.2107 169.994 24.656V19.664H163.85V27.024C163.615 27.088 163.242 27.152 162.73 27.216C162.239 27.28 161.749 27.312 161.258 27.312C160.767 27.312 160.33 27.2693 159.946 27.184C159.583 27.12 159.274 26.992 159.018 26.8C158.762 26.608 158.57 26.3413 158.442 26C158.314 25.6587 158.25 25.2107 158.25 24.656V7.75998C158.485 7.71732 158.858 7.66398 159.37 7.59999C159.882 7.51465 160.373 7.47198 160.842 7.47198C161.333 7.47198 161.759 7.51465 162.122 7.59999C162.506 7.66398 162.826 7.79198 163.082 7.98398C163.338 8.17598 163.53 8.44265 163.658 8.78399C163.786 9.12532 163.85 9.57332 163.85 10.128V15.248H169.994V7.75998C170.229 7.71732 170.602 7.66398 171.114 7.59999C171.626 7.51465 172.117 7.47198 172.586 7.47198C173.077 7.47198 173.503 7.51465 173.866 7.59999C174.25 7.66398 174.57 7.79198 174.826 7.98398C175.082 8.17598 175.274 8.44265 175.402 8.78399C175.53 9.12532 175.594 9.57332 175.594 10.128V27.024Z" fill="white"/>
<path d="M142.316 8.336C142.678 8.12267 143.222 7.92 143.948 7.728C144.694 7.536 145.441 7.44 146.188 7.44C147.254 7.44 148.193 7.6 149.004 7.92C149.836 8.21867 150.369 8.69867 150.604 9.36C150.988 10.4693 151.404 11.76 151.852 13.232C152.3 14.704 152.748 16.2293 153.196 17.808C153.644 19.3653 154.081 20.912 154.508 22.448C154.934 23.9627 155.308 25.3067 155.628 26.48C155.372 26.7787 154.988 27.0133 154.476 27.184C153.964 27.376 153.356 27.472 152.652 27.472C152.14 27.472 151.702 27.4293 151.34 27.344C150.998 27.2587 150.71 27.1307 150.476 26.96C150.262 26.7893 150.081 26.5653 149.932 26.288C149.804 26.0107 149.686 25.6907 149.58 25.328L149.004 23.12H143.212C143.041 23.76 142.87 24.4213 142.7 25.104C142.529 25.7867 142.358 26.448 142.188 27.088C141.889 27.1947 141.569 27.28 141.228 27.344C140.908 27.4293 140.513 27.472 140.044 27.472C138.956 27.472 138.145 27.2907 137.612 26.928C137.1 26.544 136.844 26.0213 136.844 25.36C136.844 25.0613 136.886 24.7627 136.972 24.464C137.057 24.1653 137.153 23.8133 137.26 23.408C137.409 22.832 137.612 22.1173 137.868 21.264C138.145 20.4107 138.444 19.4933 138.764 18.512C139.084 17.5093 139.425 16.4853 139.788 15.44C140.15 14.3947 140.492 13.4133 140.812 12.496C141.132 11.5573 141.42 10.7253 141.676 10C141.953 9.27467 142.166 8.72 142.316 8.336ZM146.156 12.464C145.857 13.36 145.516 14.3627 145.132 15.472C144.769 16.56 144.438 17.6693 144.14 18.8H148.108C147.809 17.648 147.5 16.528 147.18 15.44C146.881 14.3307 146.604 13.3387 146.348 12.464H146.156Z" fill="white"/>
<path d="M122.662 22.992C122.896 23.0347 123.184 23.0773 123.526 23.12C123.867 23.1413 124.187 23.152 124.486 23.152C125.211 23.152 125.872 23.0453 126.47 22.832C127.088 22.6187 127.611 22.288 128.038 21.84C128.486 21.392 128.827 20.816 129.062 20.112C129.318 19.3867 129.446 18.5227 129.446 17.52C129.446 15.6 128.998 14.16 128.102 13.2C127.206 12.2187 126.011 11.728 124.518 11.728C124.219 11.728 123.91 11.7387 123.59 11.76C123.291 11.7813 122.982 11.8133 122.662 11.856V22.992ZM124.454 27.664C124.091 27.664 123.675 27.6533 123.206 27.632C122.736 27.6107 122.246 27.568 121.734 27.504C121.243 27.44 120.742 27.3547 120.23 27.248C119.739 27.1627 119.28 27.0347 118.854 26.864C117.68 26.416 117.094 25.6373 117.094 24.528V9.584C117.094 9.136 117.211 8.79467 117.446 8.56C117.702 8.304 118.043 8.10134 118.47 7.952C119.387 7.65334 120.358 7.46134 121.382 7.376C122.406 7.26934 123.323 7.216 124.134 7.216C125.798 7.216 127.302 7.41867 128.646 7.824C130.011 8.22934 131.174 8.85867 132.134 9.712C133.115 10.544 133.872 11.6 134.406 12.88C134.939 14.16 135.206 15.6747 135.206 17.424C135.206 19.1307 134.95 20.624 134.438 21.904C133.926 23.1627 133.19 24.2293 132.23 25.104C131.291 25.9573 130.16 26.5973 128.838 27.024C127.515 27.4507 126.054 27.664 124.454 27.664Z" fill="white"/>
<path d="M98.4166 12.24C98.2673 12.0053 98.1286 11.6853 98.0006 11.28C97.8726 10.8747 97.8086 10.448 97.8086 10C97.8086 9.168 97.9899 8.57067 98.3526 8.208C98.7366 7.84534 99.2273 7.664 99.8246 7.664H113.777C113.926 7.89867 114.065 8.21867 114.193 8.624C114.321 9.02934 114.385 9.456 114.385 9.904C114.385 10.736 114.193 11.3333 113.809 11.696C113.446 12.0587 112.966 12.24 112.369 12.24H108.817V27.024C108.582 27.088 108.209 27.152 107.697 27.216C107.206 27.28 106.715 27.312 106.225 27.312C105.734 27.312 105.297 27.2693 104.913 27.184C104.55 27.12 104.241 26.992 103.985 26.8C103.729 26.608 103.537 26.3413 103.409 26C103.281 25.6587 103.217 25.2107 103.217 24.656V12.24H98.4166Z" fill="white"/>
<path d="M81.3966 11.8239C81.6099 11.76 81.9406 11.696 82.3886 11.632C82.8579 11.5679 83.3379 11.5359 83.8286 11.5359C84.2979 11.5359 84.7139 11.5679 85.0766 11.632C85.4606 11.696 85.7806 11.8239 86.0366 12.0159C86.2926 12.2079 86.4846 12.4746 86.6126 12.816C86.7619 13.136 86.8366 13.5626 86.8366 14.096V20.976C86.8366 21.8506 87.0499 22.48 87.4766 22.864C87.9033 23.2266 88.5219 23.408 89.3326 23.408C89.8233 23.408 90.2179 23.3653 90.5166 23.28C90.8366 23.1946 91.0819 23.1093 91.2526 23.024V11.8239C91.4659 11.76 91.7966 11.696 92.2446 11.632C92.7139 11.5679 93.1939 11.5359 93.6846 11.5359C94.1539 11.5359 94.5699 11.5679 94.9326 11.632C95.3166 11.696 95.6366 11.8239 95.8926 12.0159C96.1486 12.2079 96.3406 12.4746 96.4686 12.816C96.6179 13.136 96.6926 13.5626 96.6926 14.096V23.824C96.6926 24.8906 96.2446 25.6906 95.3486 26.2239C94.6019 26.6933 93.7059 27.0453 92.6606 27.2799C91.6366 27.5359 90.5166 27.664 89.3006 27.664C88.1486 27.664 87.0819 27.5359 86.1006 27.2799C85.1406 27.0239 84.3086 26.6293 83.6046 26.096C82.9006 25.5626 82.3566 24.88 81.9726 24.048C81.5886 23.1946 81.3966 22.1706 81.3966 20.976V11.8239Z" fill="white"/>
<path d="M61.9745 19.376C61.9745 17.968 62.1878 16.752 62.6145 15.728C63.0412 14.6827 63.6278 13.8187 64.3745 13.136C65.1425 12.4533 66.0278 11.952 67.0305 11.632C68.0545 11.2907 69.1532 11.12 70.3265 11.12C70.7532 11.12 71.1692 11.1627 71.5745 11.248C71.9798 11.312 72.3105 11.3973 72.5665 11.504V6.32C72.7798 6.256 73.1212 6.192 73.5905 6.128C74.0598 6.04267 74.5398 6 75.0305 6C75.4998 6 75.9158 6.032 76.2785 6.096C76.6625 6.16 76.9825 6.288 77.2385 6.48C77.4945 6.672 77.6865 6.93867 77.8145 7.28C77.9425 7.6 78.0065 8.02667 78.0065 8.56V23.728C78.0065 24.7307 77.5372 25.5307 76.5985 26.128C75.9798 26.5333 75.1798 26.8853 74.1985 27.184C73.2172 27.504 72.0865 27.664 70.8065 27.664C69.4198 27.664 68.1718 27.472 67.0625 27.088C65.9745 26.704 65.0465 26.1493 64.2785 25.424C63.5318 24.6987 62.9558 23.8347 62.5505 22.832C62.1665 21.808 61.9745 20.656 61.9745 19.376ZM71.0625 15.376C69.9105 15.376 69.0252 15.7067 68.4065 16.368C67.7878 17.0293 67.4785 18.032 67.4785 19.376C67.4785 20.6987 67.7665 21.7013 68.3425 22.384C68.9185 23.0453 69.7505 23.376 70.8385 23.376C71.2225 23.376 71.5638 23.3227 71.8625 23.216C72.1825 23.088 72.4278 22.9493 72.5985 22.8V15.76C72.1718 15.504 71.6598 15.376 71.0625 15.376Z" fill="white"/>
<path d="M46 10.7359C46 9.81861 46.2667 9.09328 46.8 8.55995C47.3333 8.02662 48.0587 7.75995 48.976 7.75995H59.536C59.6853 7.99461 59.8133 8.30395 59.92 8.68795C60.048 9.07195 60.112 9.47728 60.112 9.90395C60.112 10.7146 59.9307 11.2906 59.568 11.6319C59.2267 11.9733 58.768 12.1439 58.192 12.1439H51.44V15.1199H58.64C58.7893 15.3546 58.9173 15.6639 59.024 16.0479C59.152 16.4106 59.216 16.8053 59.216 17.2319C59.216 18.0426 59.0453 18.6186 58.704 18.9599C58.3627 19.3013 57.904 19.4719 57.328 19.4719H51.44V22.8319H59.664C59.8133 23.0666 59.9413 23.3759 60.048 23.7599C60.176 24.1439 60.24 24.5493 60.24 24.9759C60.24 25.7866 60.0587 26.3733 59.696 26.7359C59.3547 27.0773 58.896 27.2479 58.32 27.2479H48.976C48.0587 27.2479 47.3333 26.9813 46.8 26.448C46.2667 25.9146 46 25.1893 46 24.2719V10.7359Z" fill="white"/>
<defs>
<filter id="filter0_d_106_144" x="9" y="13" width="22" height="22" filterUnits="userSpaceOnUse" color-interpolation-filters="sRGB">
<feFlood flood-opacity="0" result="BackgroundImageFix"/>
<feColorMatrix in="SourceAlpha" type="matrix" values="0 0 0 0 0 0 0 0 0 0 0 0 0 0 0 0 0 0 127 0" result="hardAlpha"/>
<feOffset dy="4"/>
<feGaussianBlur stdDeviation="2"/>
<feComposite in2="hardAlpha" operator="out"/>
<feColorMatrix type="matrix" values="0 0 0 0 0.121569 0 0 0 0 0.113725 0 0 0 0 0.168627 0 0 0 1 0"/>
<feBlend mode="normal" in2="BackgroundImageFix" result="effect1_dropShadow_106_144"/>
<feBlend mode="normal" in="SourceGraphic" in2="effect1_dropShadow_106_144" result="shape"/>
</filter>
</defs>
</svg>
